<svg width="36" height="36" viewBox="0 0 36 36" fill="none" xmlns="http://www.w3.org/2000/svg">
<path d="M17.9999 19.4964L13.3447 24.1633C13.1294 24.377 12.878 24.4839 12.5906 24.4839C12.3032 24.4839 12.0519 24.377 11.8367 24.1633C11.623 23.9495 11.5161 23.7001 11.5161 23.4151C11.5161 23.1301 11.623 22.8808 11.8367 22.667L16.5036 18.0001L11.8367 13.3806C11.623 13.1652 11.5161 12.9138 11.5161 12.6265C11.5161 12.3391 11.623 12.0878 11.8367 11.8726C12.0505 11.6589 12.2999 11.552 12.5849 11.552C12.8699 11.552 13.1192 11.6589 13.333 11.8726L17.9999 16.5395L22.6194 11.8726C22.811 11.6589 23.0565 11.552 23.3557 11.552C23.655 11.552 23.9122 11.6589 24.1274 11.8726C24.3411 12.0864 24.448 12.3358 24.448 12.6208C24.448 12.9058 24.3411 13.1551 24.1274 13.3689L19.4605 18.0001L24.1274 22.6552C24.3411 22.8706 24.448 23.1221 24.448 23.4094C24.448 23.6968 24.3411 23.9481 24.1274 24.1633C23.9136 24.377 23.6642 24.4839 23.3792 24.4839C23.0942 24.4839 22.8449 24.377 22.6311 24.1633L17.9999 19.4964Z" fill="#98959D"/>
</svg>
