<svg width="20" height="21" viewBox="0 0 20 21" fill="none" xmlns="http://www.w3.org/2000/svg">
<path fill-rule="evenodd" clip-rule="evenodd" d="M6.42857 2.64285C5.72096 2.64285 5.16776 3.07307 4.8241 3.58855C4.47711 4.10902 4.28571 4.78691 4.28571 5.5C4.28571 6.21308 4.47711 6.89097 4.8241 7.41144C5.16776 7.92692 5.72096 8.35714 6.42857 8.35714C7.13619 8.35714 7.68939 7.92692 8.03304 7.41144C8.38003 6.89097 8.57143 6.21308 8.57143 5.5C8.57143 4.78691 8.38003 4.10902 8.03304 3.58855C7.68939 3.07307 7.13619 2.64285 6.42857 2.64285ZM13.5714 2.64285C12.8638 2.64285 12.3106 3.07307 11.967 3.58855C11.62 4.10902 11.4286 4.78691 11.4286 5.5C11.4286 6.21308 11.62 6.89097 11.967 7.41144C12.3106 7.92692 12.8638 8.35714 13.5714 8.35714C14.279 8.35714 14.8323 7.92692 15.1759 7.41144C15.5229 6.89097 15.7143 6.21308 15.7143 5.5C15.7143 4.78691 15.5229 4.10902 15.1759 3.58855C14.8323 3.07307 14.279 2.64285 13.5714 2.64285ZM2.14286 9.07142C1.43524 9.07142 0.882039 9.50164 0.538383 10.0171C0.191399 10.5376 0 11.2155 0 11.9286C0 12.6417 0.191399 13.3195 0.538383 13.84C0.882039 14.3555 1.43524 14.7857 2.14286 14.7857C2.85047 14.7857 3.40367 14.3555 3.74733 13.84C4.09431 13.3195 4.28571 12.6417 4.28571 11.9286C4.28571 11.2155 4.09431 10.5376 3.74733 10.0171C3.40367 9.50164 2.85047 9.07142 2.14286 9.07142ZM10 9.07142C8.2845 9.07142 7.01606 9.991 6.20377 11.1322C5.40271 12.2577 5 13.6527 5 14.7857C5 16.1059 5.79326 17.0236 6.7655 17.5749C7.72334 18.1181 8.92369 18.3571 10 18.3571C11.0763 18.3571 12.2767 18.1181 13.2345 17.5749C14.2067 17.0236 15 16.1059 15 14.7857C15 13.6527 14.5973 12.2577 13.7962 11.1322C12.9839 9.991 11.7155 9.07142 10 9.07142ZM17.8571 9.07142C17.1496 9.07142 16.5963 9.50164 16.2527 10.0171C15.9057 10.5376 15.7143 11.2155 15.7143 11.9286C15.7143 12.6417 15.9057 13.3195 16.2527 13.84C16.5963 14.3555 17.1496 14.7857 17.8571 14.7857C18.5647 14.7857 19.118 14.3555 19.4616 13.84C19.8086 13.3195 20 12.6417 20 11.9286C20 11.2155 19.8086 10.5376 19.4616 10.0171C19.118 9.50164 18.5647 9.07142 17.8571 9.07142Z" fill="#9282FA"/>
</svg>
