<svg width="20" height="21" viewBox="0 0 20 21" fill="none" xmlns="http://www.w3.org/2000/svg">
<path d="M9.0302 11.5319C5.98299 8.50201 7.08642 7.38592 7.0933 7.37903L2.91528 11.557C3.60443 12.5959 4.50234 13.7107 5.6706 14.8725C6.84963 16.0448 8.00903 16.9149 9.10707 17.5576L13.2069 13.4578C13.2069 13.4578 12.087 14.5714 9.0302 11.5319Z" fill="#9282FA" fill-opacity="0.4"/>
<path fill-rule="evenodd" clip-rule="evenodd" d="M13.2074 13.4575L13.6786 12.9891C14.3299 12.3414 15.3451 12.2084 16.1784 12.6614L18.1547 13.7358C19.4239 14.4256 19.7036 16.1165 18.7117 17.1029L17.2422 18.5639C16.8685 18.9355 16.4049 19.207 15.8717 19.2567C14.6385 19.3717 12.1012 19.3097 9.10764 17.5573L13.2074 13.4575ZM7.09388 7.37863L7.39051 7.08365C8.12146 6.3569 8.19034 5.19015 7.55265 4.33831L6.24822 2.59593C5.45901 1.54167 3.93386 1.40242 3.0293 2.30191L1.40559 3.91635C0.957036 4.3623 0.65644 4.94045 0.692936 5.58186C0.759831 6.75994 1.16144 8.91201 2.91578 11.5567L7.09388 7.37863Z" fill="#9282FA"/>
</svg>
