<svg width="21" height="21" viewBox="0 0 21 21" fill="none" xmlns="http://www.w3.org/2000/svg">
<path d="M10.4999 19.81C15.6417 19.81 19.8099 15.6417 19.8099 10.5C19.8099 5.35821 15.6417 1.19 10.4999 1.19C5.35815 1.19 1.18994 5.35821 1.18994 10.5C1.18994 15.6417 5.35815 19.81 10.4999 19.81Z" fill="#9282FA" fill-opacity="0.4"/>
<path fill-rule="evenodd" clip-rule="evenodd" d="M10.5 6.07776C10.8856 6.07776 11.1983 6.39039 11.1983 6.77601V10.2107L13.3212 12.3338C13.5939 12.6065 13.5939 13.0485 13.3212 13.3212C13.0485 13.5939 12.6065 13.5939 12.3338 13.3212L10.0063 10.9937C9.8753 10.8628 9.80176 10.6852 9.80176 10.5V6.77601C9.80176 6.39039 10.1144 6.07776 10.5 6.07776Z" fill="#9282FA"/>
</svg>
