<svg width="20" height="20" viewBox="0 0 20 20" fill="none" xmlns="http://www.w3.org/2000/svg">
<g clip-path="url(#clip0_3136_809)">
<path d="M9.88785 6.74715C9.88785 8.48169 8.48169 9.88785 6.74715 9.88785C5.0126 9.88785 3.60645 8.48169 3.60645 6.74715C3.60645 5.0126 5.01252 3.60645 6.74715 3.60645C8.48177 3.60645 9.88785 5.01252 9.88785 6.74715Z" fill="#F09102"/>
<path fill-rule="evenodd" clip-rule="evenodd" d="M6.29835 0.690002C6.67003 0.690002 6.97142 0.991311 6.97142 1.363V1.81171C6.97142 2.1834 6.67003 2.48471 6.29835 2.48471C5.92666 2.48471 5.62535 2.1834 5.62535 1.81171V1.363C5.62535 0.991311 5.92666 0.690002 6.29835 0.690002ZM2.33289 2.33271C2.59572 2.06988 3.0218 2.06988 3.28463 2.33271L3.47851 2.52659C3.74134 2.78942 3.74134 3.2155 3.47851 3.47833C3.21567 3.74116 2.7896 3.74116 2.52677 3.47833L2.33289 3.28445C2.07005 3.02162 2.07005 2.59554 2.33289 2.33271ZM10.2638 2.33279C10.5266 2.59562 10.5266 3.02178 10.2638 3.28461L10.0698 3.47849C9.80701 3.74132 9.38094 3.74132 9.1181 3.47849C8.85527 3.21566 8.85527 2.7895 9.1181 2.52667L9.31198 2.33279C9.57482 2.06996 10.001 2.06996 10.2638 2.33279ZM0.689941 6.29841C0.689941 5.92672 0.99125 5.62541 1.36294 5.62541H1.81165C2.18334 5.62541 2.48465 5.92672 2.48465 6.29841C2.48465 6.67009 2.18334 6.97148 1.81165 6.97148H1.36294C0.99125 6.97148 0.689941 6.67009 0.689941 6.29841ZM3.47851 9.11856C3.74134 9.38139 3.74134 9.80755 3.47851 10.0704L3.28463 10.2642C3.0218 10.527 2.59572 10.527 2.33289 10.2642C2.07005 10.0013 2.07005 9.57519 2.33289 9.31244L2.52677 9.11856C2.7896 8.85573 3.21567 8.85573 3.47851 9.11856Z" fill="#F09102"/>
<path d="M14.1823 19.31C17.0143 19.31 19.31 17.0412 19.31 14.2425C19.31 12.0245 17.868 10.1392 15.8598 9.45262C15.5745 6.92095 13.4018 4.95239 10.7638 4.95239C7.93189 4.95239 5.63614 7.22115 5.63614 10.0198C5.63614 10.6388 5.74847 11.2319 5.95407 11.7802C5.71293 11.7334 5.46379 11.7089 5.20887 11.7089C3.08483 11.7089 1.36304 13.4105 1.36304 15.5094C1.36304 17.6085 3.08483 19.31 5.2088 19.31H14.1823Z" fill="#75501B"/>
</g>
<defs>
<clipPath id="clip0_3136_809">
<rect width="20" height="20" fill="white"/>
</clipPath>
</defs>
</svg>
