<svg width="20" height="20" viewBox="0 0 20 20" fill="none" xmlns="http://www.w3.org/2000/svg">
<g clip-path="url(#clip0_5103_505)">
<path d="M19.31 11.862V10.0001C19.31 9.21886 19.307 7.8264 19.295 7.207H0.699301C0.687267 7.8264 0.690276 9.21886 0.690276 10.0001V11.862C0.690276 15.373 0.690276 17.1284 1.78103 18.2192C2.87171 19.3099 4.62723 19.3099 8.13812 19.3099H11.8621C15.3731 19.3099 17.1286 19.3099 18.2192 18.2192C19.31 17.1284 19.31 15.373 19.31 11.862Z" fill="#9282FA" fill-opacity="0.4"/>
<path d="M5.28953 0.690155C5.67666 0.690155 5.99055 0.991938 5.99055 1.36426V2.72418C6.61233 2.71263 7.30931 2.71263 8.09354 2.71263H11.8323C12.6165 2.71263 13.3135 2.71263 13.9353 2.72418V1.36426C13.9353 0.991938 14.2491 0.690155 14.6363 0.690155C15.0235 0.690155 15.3374 0.991938 15.3374 1.36426V2.78388C16.6826 2.88743 17.5658 3.14171 18.2147 3.7657C18.8635 4.38969 19.1279 5.23907 19.2357 6.53281L19.3099 7.207H0.690186V6.53281C0.797931 5.23907 1.06235 4.38969 1.7112 3.7657C2.36005 3.14171 3.24323 2.88743 4.58851 2.78388V1.36426C4.58851 0.991938 4.90241 0.690155 5.28953 0.690155Z" fill="#9282FA"/>
</g>
<defs>
<clipPath id="clip0_5103_505">
<rect width="20" height="20" fill="white"/>
</clipPath>
</defs>
</svg>
